<?xml version="1.0" standalone="yes"?>

<svg version="1.1" viewBox="0.0 0.0 2220.0 1364.0" fill="none" stroke="none" stroke-linecap="square" stroke-miterlimit="10" xmlns="http://www.w3.org/2000/svg" xmlns:xlink="http://www.w3.org/1999/xlink"><clipPath id="p.0"><path d="m0 0l2220.0 0l0 1364.0l-2220.0 0l0 -1364.0z" clip-rule="nonzero"></path></clipPath><g clip-path="url(#p.0)"><path fill="#000000" fill-opacity="0.0" d="m0 0l2220.0 0l0 1364.0l-2220.0 0z" fill-rule="nonzero"></path><path fill="#5b57bb" d="m699.25714 1182.8448l0 0c0 14.291992 48.085327 25.878052 107.40155 25.878052c59.316284 0 107.40161 -11.58606 107.40161 -25.878052l0 155.26782c0 14.291992 -48.085327 25.87793 -107.40161 25.87793c-59.316223 0 -107.40155 -11.5859375 -107.40155 -25.87793z" fill-rule="nonzero"></path><path fill="#9c9ad6" d="m699.25714 1182.8448l0 0c0 -14.291992 48.085327 -25.87793 107.40155 -25.87793c59.316284 0 107.40161 11.5859375 107.40161 25.87793l0 0c0 14.291992 -48.085327 25.878052 -107.40161 25.878052c-59.316223 0 -107.40155 -11.58606 -107.40155 -25.878052z" fill-rule="nonzero"></path><path fill="#000000" fill-opacity="0.0" d="m914.0603 1182.8448l0 0c0 14.291992 -48.085327 25.878052 -107.40161 25.878052c-59.316223 0 -107.40155 -11.58606 -107.40155 -25.878052l0 0c0 -14.291992 48.085327 -25.87793 107.40155 -25.87793c59.316284 0 107.40161 11.5859375 107.40161 25.87793l0 155.26782c0 14.291992 -48.085327 25.87793 -107.40161 25.87793c-59.316223 0 -107.40155 -11.5859375 -107.40155 -25.87793l0 -155.26782" fill-rule="nonzero"></path><path fill="#ffffff" d="m781.96924 1287.8177l0 -28.640625l9.859375 0q3.34375 0 5.09375 0.421875q2.46875 0.5625 4.203125 2.046875q2.265625 1.90625 3.390625 4.890625q1.125 2.984375 1.125 6.8125q0 3.25 -0.765625 5.78125q-0.765625 2.515625 -1.953125 4.171875q-1.1875 1.640625 -2.609375 2.59375q-1.421875 0.9375 -3.421875 1.4375q-2.0 0.484375 -4.59375 0.484375l-10.328125 0zm3.78125 -3.375l6.109375 0q2.84375 0 4.453125 -0.53125q1.609375 -0.53125 2.5625 -1.484375q1.34375 -1.34375 2.09375 -3.625q0.765625 -2.28125 0.765625 -5.515625q0 -4.5 -1.484375 -6.90625q-1.46875 -2.40625 -3.578125 -3.234375q-1.53125 -0.578125 -4.90625 -0.578125l-6.015625 0l0 21.875zm24.949219 3.375l0 -28.640625l10.734375 0q3.28125 0 5.265625 0.875q1.984375 0.875 3.109375 2.6875q1.125 1.796875 1.125 3.765625q0 1.84375 -1.0 3.46875q-1.0 1.609375 -3.015625 2.609375q2.609375 0.765625 4.0 2.609375q1.390625 1.828125 1.390625 4.328125q0 2.0 -0.84375 3.734375q-0.84375 1.734375 -2.09375 2.671875q-1.25 0.9375 -3.140625 1.421875q-1.890625 0.46875 -4.625 0.46875l-10.90625 0zm3.78125 -16.609375l6.1875 0q2.53125 0 3.625 -0.328125q1.4375 -0.421875 2.171875 -1.421875q0.734375 -1.0 0.734375 -2.5q0 -1.421875 -0.6875 -2.5q-0.6875 -1.09375 -1.953125 -1.484375q-1.265625 -0.40625 -4.359375 -0.40625l-5.71875 0l0 8.640625zm0 13.234375l7.125 0q1.84375 0 2.578125 -0.140625q1.3125 -0.234375 2.1875 -0.78125q0.890625 -0.546875 1.453125 -1.59375q0.5625 -1.046875 0.5625 -2.40625q0 -1.609375 -0.828125 -2.78125q-0.8125 -1.1875 -2.265625 -1.65625q-1.453125 -0.484375 -4.1875 -0.484375l-6.625 0l0 9.84375z" fill-rule="nonzero"></path><path fill="#6a9dd7" d="m0 794.2217l1643.118 0l0 173.7638l-1643.118 0z" fill-rule="nonzero"></path><path fill="#ffffff" d="m721.5727 887.3786l3.421875 -0.46875q0.125 3.28125 1.21875 4.5q1.09375 1.203125 3.03125 1.203125q1.421875 0 2.453125 -0.65625q1.046875 -0.65625 1.4375 -1.78125q0.390625 -1.125 0.390625 -3.578125l0 -19.734375l3.78125 0l0 19.515625q0 3.59375 -0.875 5.578125q-0.859375 1.96875 -2.75 3.0q-1.875 1.03125 -4.421875 1.03125q-3.765625 0 -5.765625 -2.15625q-2.0 -2.171875 -1.921875 -6.453125zm22.015625 8.125l0 -28.640625l20.703125 0l0 3.390625l-16.921875 0l0 8.765625l15.84375 0l0 3.359375l-15.84375 0l0 9.75l17.578125 0l0 3.375l-21.359375 0zm26.679688 0l0 -28.640625l20.703125 0l0 3.390625l-16.921875 0l0 8.765625l15.84375 0l0 3.359375l-15.84375 0l0 9.75l17.578125 0l0 3.375l-21.359375 0zm36.41797 -9.203125l3.578125 -0.3125q0.25 2.15625 1.171875 3.53125q0.9375 1.375 2.890625 2.234375q1.953125 0.84375 4.390625 0.84375q2.171875 0 3.828125 -0.640625q1.65625 -0.65625 2.46875 -1.78125q0.8125 -1.125 0.8125 -2.453125q0 -1.34375 -0.78125 -2.34375q-0.78125 -1.015625 -2.578125 -1.6875q-1.15625 -0.453125 -5.109375 -1.390625q-3.9375 -0.953125 -5.515625 -1.796875q-2.046875 -1.078125 -3.0625 -2.671875q-1.0 -1.59375 -1.0 -3.5625q0 -2.171875 1.234375 -4.046875q1.234375 -1.890625 3.59375 -2.859375q2.359375 -0.984375 5.25 -0.984375q3.1875 0 5.609375 1.03125q2.4375 1.015625 3.75 3.015625q1.3125 1.984375 1.40625 4.515625l-3.640625 0.265625q-0.28125 -2.71875 -1.984375 -4.09375q-1.6875 -1.390625 -4.984375 -1.390625q-3.4375 0 -5.015625 1.265625q-1.5625 1.25 -1.5625 3.03125q0 1.546875 1.109375 2.53125q1.09375 1.0 5.703125 2.046875q4.625 1.046875 6.34375 1.828125q2.5 1.15625 3.6875 2.921875q1.203125 1.765625 1.203125 4.0625q0 2.296875 -1.3125 4.3125q-1.3125 2.015625 -3.765625 3.140625q-2.4375 1.125 -5.515625 1.125q-3.875 0 -6.515625 -1.125q-2.625 -1.140625 -4.125 -3.40625q-1.484375 -2.28125 -1.5625 -5.15625zm41.726562 2.515625l3.625 0.453125q-0.859375 3.1875 -3.1875 4.953125q-2.3125 1.75 -5.9375 1.75q-4.546875 0 -7.21875 -2.796875q-2.65625 -2.8125 -2.65625 -7.875q0 -5.234375 2.6875 -8.125q2.703125 -2.890625 7.0 -2.890625q4.15625 0 6.796875 2.84375q2.640625 2.828125 2.640625 7.96875q0 0.3125 -0.03125 0.9375l-15.46875 0q0.203125 3.40625 1.9375 5.234375q1.734375 1.8125 4.34375 1.8125q1.921875 0 3.28125 -1.015625q1.375 -1.015625 2.1875 -3.25zm-11.546875 -5.671875l11.578125 0q-0.234375 -2.625 -1.328125 -3.9375q-1.671875 -2.03125 -4.359375 -2.03125q-2.421875 0 -4.078125 1.625q-1.640625 1.625 -1.8125 4.34375zm19.542969 12.359375l0 -20.75l3.171875 0l0 3.15625q1.203125 -2.21875 2.234375 -2.921875q1.03125 -0.703125 2.25 -0.703125q1.78125 0 3.625 1.140625l-1.21875 3.265625q-1.28125 -0.765625 -2.578125 -0.765625q-1.15625 0 -2.078125 0.703125q-0.90625 0.6875 -1.296875 1.90625q-0.59375 1.875 -0.59375 4.109375l0 10.859375l-3.515625 0zm19.132812 0l-7.890625 -20.75l3.703125 0l4.453125 12.421875q0.71875 2.015625 1.328125 4.1875q0.46875 -1.640625 1.3125 -3.953125l4.609375 -12.65625l3.609375 0l-7.84375 20.75l-3.28125 0zm28.4375 -6.6875l3.625 0.453125q-0.859375 3.1875 -3.1875 4.953125q-2.3125 1.75 -5.9375 1.75q-4.546875 0 -7.21875 -2.796875q-2.65625 -2.8125 -2.65625 -7.875q0 -5.234375 2.6875 -8.125q2.703125 -2.890625 7.0 -2.890625q4.15625 0 6.796875 2.84375q2.640625 2.828125 2.640625 7.96875q0 0.3125 -0.03125 0.9375l-15.46875 0q0.203125 3.40625 1.9375 5.234375q1.734375 1.8125 4.34375 1.8125q1.921875 0 3.28125 -1.015625q1.375 -1.015625 2.1875 -3.25zm-11.546875 -5.671875l11.578125 0q-0.234375 -2.625 -1.328125 -3.9375q-1.671875 -2.03125 -4.359375 -2.03125q-2.421875 0 -4.078125 1.625q-1.640625 1.625 -1.8125 4.34375zm19.542969 12.359375l0 -20.75l3.171875 0l0 3.15625q1.203125 -2.21875 2.234375 -2.921875q1.03125 -0.703125 2.25 -0.703125q1.78125 0 3.625 1.140625l-1.21875 3.265625q-1.28125 -0.765625 -2.578125 -0.765625q-1.15625 0 -2.078125 0.703125q-0.90625 0.6875 -1.296875 1.90625q-0.59375 1.875 -0.59375 4.109375l0 10.859375l-3.515625 0z" fill-rule="nonzero"></path><path fill="#63c163" d="m0 546.26416l1643.118 0l0 247.93701l-1643.118 0z" fill-rule="nonzero"></path><path fill="#ffffff" d="m515.64856 701.4327l-13.671875 0l-5.4375 -14.140625l-24.890625 0l-5.140625 14.140625l-13.34375 0l24.25 -62.28125l13.296875 0l24.9375 62.28125zm-23.140625 -24.640625l-8.59375 -23.109375l-8.40625 23.109375l17.0 0zm70.51788 24.640625l-11.9375 0l0 -23.03125q0 -7.296875 -0.765625 -9.4375q-0.765625 -2.15625 -2.484375 -3.34375q-1.71875 -1.1875 -4.140625 -1.1875q-3.109375 0 -5.578125 1.703125q-2.453125 1.6875 -3.375 4.5q-0.90625 2.796875 -0.90625 10.359375l0 20.4375l-11.9375 0l0 -45.109375l11.09375 0l0 6.625q5.90625 -7.65625 14.859375 -7.65625q3.953125 0 7.21875 1.4375q3.28125 1.421875 4.953125 3.625q1.6875 2.203125 2.34375 5.015625q0.65625 2.796875 0.65625 8.03125l0 28.03125zm11.464294 0l0 -62.28125l11.9375 0l0 33.046875l13.984375 -15.875l14.703125 0l-15.421875 16.484375l16.515625 28.625l-12.859375 0l-11.34375 -20.265625l-5.578125 5.828125l0 14.4375l-11.9375 0zm45.865967 -23.1875q0 -5.953125 2.921875 -11.515625q2.9375 -5.5625 8.3125 -8.5q5.375 -2.9375 12.0 -2.9375q10.234375 0 16.78125 6.65625q6.546875 6.640625 6.546875 16.796875q0 10.234375 -6.609375 16.96875q-6.609375 6.734375 -16.625 6.734375q-6.203125 0 -11.84375 -2.796875q-5.625 -2.8125 -8.5625 -8.21875q-2.921875 -5.421875 -2.921875 -13.1875zm12.234375 0.625q0 6.71875 3.1875 10.296875q3.1875 3.5625 7.859375 3.5625q4.671875 0 7.828125 -3.5625q3.171875 -3.578125 3.171875 -10.375q0 -6.625 -3.171875 -10.1875q-3.15625 -3.578125 -7.828125 -3.578125q-4.671875 0 -7.859375 3.578125q-3.1875 3.5625 -3.1875 10.265625zm54.88623 22.5625l-11.9375 0l0 -45.109375l11.09375 0l0 6.40625q2.84375 -4.546875 5.109375 -5.984375q2.28125 -1.453125 5.171875 -1.453125q4.078125 0 7.859375 2.265625l-3.703125 10.40625q-3.015625 -1.953125 -5.609375 -1.953125q-2.5 0 -4.25 1.375q-1.734375 1.375 -2.734375 4.984375q-1.0 3.609375 -1.0 15.125l0 13.9375zm46.549072 0l0 -62.28125l42.6875 0l0 10.546875l-30.125 0l0 14.734375l26.0 0l0 10.53125l-26.0 0l0 26.46875l-12.5625 0zm64.183044 0l-11.9375 0l0 -45.109375l11.09375 0l0 6.40625q2.84375 -4.546875 5.109375 -5.984375q2.28125 -1.453125 5.171875 -1.453125q4.078125 0 7.859375 2.265625l-3.703125 10.40625q-3.015625 -1.953125 -5.609375 -1.953125q-2.5 0 -4.25 1.375q-1.734375 1.375 -2.734375 4.984375q-1.0 3.609375 -1.0 15.125l0 13.9375zm31.223145 -31.34375l-10.84375 -1.96875q1.828125 -6.53125 6.28125 -9.671875q4.46875 -3.15625 13.265625 -3.15625q7.984375 0 11.890625 1.890625q3.90625 1.890625 5.5 4.8125q1.59375 2.90625 1.59375 10.671875l-0.125 13.9375q0 5.953125 0.5625 8.78125q0.578125 2.8125 2.15625 6.046875l-11.8125 0q-0.46875 -1.1875 -1.140625 -3.53125q-0.296875 -1.0625 -0.421875 -1.390625q-3.0625 2.96875 -6.546875 4.453125q-3.484375 1.484375 -7.4375 1.484375q-6.96875 0 -10.984375 -3.78125q-4.015625 -3.78125 -4.015625 -9.546875q0 -3.828125 1.828125 -6.8125q1.828125 -3.0 5.125 -4.59375q3.296875 -1.59375 9.5 -2.796875q8.359375 -1.5625 11.59375 -2.921875l0 -1.1875q0 -3.4375 -1.703125 -4.90625q-1.703125 -1.46875 -6.40625 -1.46875q-3.1875 0 -4.984375 1.25q-1.78125 1.25 -2.875 4.40625zm15.96875 9.671875q-2.296875 0.765625 -7.265625 1.828125q-4.96875 1.0625 -6.5 2.09375q-2.34375 1.65625 -2.34375 4.203125q0 2.5 1.875 4.328125q1.875 1.828125 4.765625 1.828125q3.21875 0 6.15625 -2.125q2.15625 -1.609375 2.84375 -3.953125q0.46875 -1.53125 0.46875 -5.8125l0 -2.390625zm22.412842 -23.4375l11.0 0l0 6.15625q5.90625 -7.1875 14.0625 -7.1875q4.328125 0 7.515625 1.796875q3.1875 1.78125 5.21875 5.390625q2.984375 -3.609375 6.421875 -5.390625q3.4375 -1.796875 7.34375 -1.796875q4.96875 0 8.40625 2.03125q3.453125 2.015625 5.140625 5.921875q1.234375 2.890625 1.234375 9.34375l0 28.84375l-11.9375 0l0 -25.78125q0 -6.71875 -1.234375 -8.671875q-1.65625 -2.546875 -5.09375 -2.546875q-2.5 0 -4.71875 1.53125q-2.203125 1.53125 -3.1875 4.484375q-0.96875 2.953125 -0.96875 9.3125l0 21.671875l-11.9375 0l0 -24.71875q0 -6.59375 -0.640625 -8.5q-0.640625 -1.90625 -1.984375 -2.84375q-1.328125 -0.9375 -3.625 -0.9375q-2.75 0 -4.96875 1.484375q-2.203125 1.484375 -3.15625 4.296875q-0.953125 2.796875 -0.953125 9.296875l0 21.921875l-11.9375 0l0 -45.109375zm104.066895 30.75l11.890625 2.0q-2.296875 6.546875 -7.25 9.96875q-4.9375 3.40625 -12.375 3.40625q-11.765625 0 -17.421875 -7.6875q-4.453125 -6.15625 -4.453125 -15.546875q0 -11.21875 5.859375 -17.5625q5.859375 -6.359375 14.828125 -6.359375q10.0625 0 15.875 6.65625q5.828125 6.640625 5.578125 20.375l-29.90625 0q0.125 5.296875 2.875 8.25q2.765625 2.953125 6.890625 2.953125q2.796875 0 4.703125 -1.515625q1.921875 -1.53125 2.90625 -4.9375zm0.671875 -12.0625q-0.125 -5.1875 -2.671875 -7.875q-2.546875 -2.703125 -6.203125 -2.703125q-3.90625 0 -6.453125 2.84375q-2.546875 2.84375 -2.515625 7.734375l17.84375 0zm29.803467 26.421875l-14.28125 -45.109375l11.609375 0l8.453125 29.5625l7.765625 -29.5625l11.515564 0l7.515625 29.5625l8.625 -29.5625l11.765625 0l-14.484375 45.109375l-11.46875 0l-7.765564 -29.015625l-7.65625 29.015625l-11.59375 0zm56.232117 -23.1875q0 -5.953125 2.921875 -11.515625q2.9375 -5.5625 8.3125 -8.5q5.375 -2.9375 12.0 -2.9375q10.234375 0 16.78125 6.65625q6.546875 6.640625 6.546875 16.796875q0 10.234375 -6.609375 16.96875q-6.609375 6.734375 -16.625 6.734375q-6.203125 0 -11.84375 -2.796875q-5.625 -2.8125 -8.5625 -8.21875q-2.921875 -5.421875 -2.921875 -13.1875zm12.234375 0.625q0 6.71875 3.1875 10.296875q3.1875 3.5625 7.859375 3.5625q4.671875 0 7.828125 -3.5625q3.171875 -3.578125 3.171875 -10.375q0 -6.625 -3.171875 -10.1875q-3.15625 -3.578125 -7.828125 -3.578125q-4.671875 0 -7.859375 3.578125q-3.1875 3.5625 -3.1875 10.265625zm54.88623 22.5625l-11.9375 0l0 -45.109375l11.09375 0l0 6.40625q2.84375 -4.546875 5.109375 -5.984375q2.28125 -1.453125 5.171875 -1.453125q4.078125 0 7.859375 2.265625l-3.703125 10.40625q-3.015625 -1.953125 -5.609375 -1.953125q-2.5 0 -4.25 1.375q-1.734375 1.375 -2.734375 4.984375q-1.0 3.609375 -1.0 15.125l0 13.9375zm21.86377 0l0 -62.28125l11.9375 0l0 33.046875l13.984375 -15.875l14.703125 0l-15.421875 16.484375l16.515625 28.625l-12.859375 0l-11.34375 -20.265625l-5.578125 5.828125l0 14.4375l-11.9375 0z" fill-rule="nonzero"></path><path fill="#6bd16b" d="m0 421.02634l1643.118 0l0 125.29135l-1643.118 0z" fill-rule="nonzero"></path><path fill="#ffffff" d="m727.809 498.072l0 -28.640625l5.703125 0l6.78125 20.28125q0.9375 2.828125 1.359375 4.234375q0.5 -1.5625 1.53125 -4.59375l6.859375 -19.921875l5.09375 0l0 28.640625l-3.65625 0l0 -23.96875l-8.3125 23.96875l-3.421875 0l-8.28125 -24.375l0 24.375l-3.65625 0zm47.195312 -6.6875l3.625 0.453125q-0.859375 3.1875 -3.1875 4.953125q-2.3125 1.75 -5.9375 1.75q-4.546875 0 -7.21875 -2.796875q-2.65625 -2.8125 -2.65625 -7.875q0 -5.234375 2.6875 -8.125q2.703125 -2.890625 7.0 -2.890625q4.15625 0 6.796875 2.84375q2.640625 2.828125 2.640625 7.96875q0 0.3125 -0.03125 0.9375l-15.46875 0q0.203125 3.40625 1.9375 5.234375q1.734375 1.8125 4.34375 1.8125q1.921875 0 3.28125 -1.015625q1.375 -1.015625 2.1875 -3.25zm-11.546875 -5.671875l11.578125 0q-0.234375 -2.625 -1.328125 -3.9375q-1.671875 -2.03125 -4.359375 -2.03125q-2.421875 0 -4.078125 1.625q-1.640625 1.625 -1.8125 4.34375zm18.183594 6.171875l3.46875 -0.546875q0.296875 2.078125 1.625 3.203125q1.34375 1.109375 3.75 1.109375q2.421875 0 3.59375 -0.984375q1.171875 -0.984375 1.171875 -2.3125q0 -1.203125 -1.03125 -1.875q-0.71875 -0.46875 -3.59375 -1.203125q-3.875 -0.96875 -5.375 -1.671875q-1.484375 -0.71875 -2.265625 -1.984375q-0.765625 -1.265625 -0.765625 -2.78125q0 -1.390625 0.640625 -2.5625q0.640625 -1.1875 1.734375 -1.96875q0.8125 -0.609375 2.21875 -1.03125q1.421875 -0.421875 3.046875 -0.421875q2.4375 0 4.28125 0.703125q1.859375 0.703125 2.734375 1.90625q0.875 1.203125 1.203125 3.21875l-3.4375 0.46875q-0.234375 -1.609375 -1.359375 -2.5q-1.109375 -0.90625 -3.171875 -0.90625q-2.421875 0 -3.453125 0.8125q-1.03125 0.796875 -1.03125 1.875q0 0.671875 0.421875 1.21875q0.4375 0.578125 1.359375 0.9375q0.515625 0.203125 3.09375 0.90625q3.734375 1.0 5.203125 1.640625q1.484375 0.625 2.3125 1.84375q0.84375 1.203125 0.84375 3.0q0 1.75 -1.03125 3.3125q-1.015625 1.546875 -2.953125 2.40625q-1.921875 0.84375 -4.375 0.84375q-4.03125 0 -6.15625 -1.671875q-2.125 -1.6875 -2.703125 -4.984375zm20.0 0l3.46875 -0.546875q0.296875 2.078125 1.625 3.203125q1.34375 1.109375 3.75 1.109375q2.421875 0 3.59375 -0.984375q1.171875 -0.984375 1.171875 -2.3125q0 -1.203125 -1.03125 -1.875q-0.71875 -0.46875 -3.59375 -1.203125q-3.875 -0.96875 -5.375 -1.671875q-1.484375 -0.71875 -2.265625 -1.984375q-0.765625 -1.265625 -0.765625 -2.78125q0 -1.390625 0.640625 -2.5625q0.640625 -1.1875 1.734375 -1.96875q0.8125 -0.609375 2.21875 -1.03125q1.421875 -0.421875 3.046875 -0.421875q2.4375 0 4.28125 0.703125q1.859375 0.703125 2.734375 1.90625q0.875 1.203125 1.203125 3.21875l-3.4375 0.46875q-0.234375 -1.609375 -1.359375 -2.5q-1.109375 -0.90625 -3.171875 -0.90625q-2.421875 0 -3.453125 0.8125q-1.03125 0.796875 -1.03125 1.875q0 0.671875 0.421875 1.21875q0.4375 0.578125 1.359375 0.9375q0.515625 0.203125 3.09375 0.90625q3.734375 1.0 5.203125 1.640625q1.484375 0.625 2.3125 1.84375q0.84375 1.203125 0.84375 3.0q0 1.75 -1.03125 3.3125q-1.015625 1.546875 -2.953125 2.40625q-1.921875 0.84375 -4.375 0.84375q-4.03125 0 -6.15625 -1.671875q-2.125 -1.6875 -2.703125 -4.984375zm34.9375 3.625q-1.953125 1.65625 -3.765625 2.34375q-1.796875 0.6875 -3.875 0.6875q-3.40625 0 -5.25 -1.671875q-1.828125 -1.671875 -1.828125 -4.265625q0 -1.53125 0.6875 -2.78125q0.6875 -1.265625 1.8125 -2.015625q1.125 -0.765625 2.53125 -1.15625q1.03125 -0.28125 3.125 -0.53125q4.265625 -0.515625 6.265625 -1.21875q0.03125 -0.71875 0.03125 -0.90625q0 -2.15625 -1.0 -3.03125q-1.34375 -1.1875 -4.0 -1.1875q-2.484375 0 -3.671875 0.875q-1.171875 0.859375 -1.75 3.0625l-3.4375 -0.46875q0.46875 -2.203125 1.546875 -3.5625q1.078125 -1.359375 3.109375 -2.09375q2.03125 -0.734375 4.703125 -0.734375q2.65625 0 4.3125 0.625q1.671875 0.625 2.453125 1.578125q0.78125 0.953125 1.09375 2.390625q0.171875 0.90625 0.171875 3.25l0 4.6875q0 4.890625 0.21875 6.203125q0.234375 1.296875 0.890625 2.484375l-3.671875 0q-0.546875 -1.09375 -0.703125 -2.5625zm-0.296875 -7.84375q-1.90625 0.78125 -5.734375 1.328125q-2.171875 0.3125 -3.078125 0.703125q-0.890625 0.390625 -1.375 1.140625q-0.484375 0.75 -0.484375 1.671875q0 1.40625 1.0625 2.34375q1.0625 0.9375 3.109375 0.9375q2.03125 0 3.609375 -0.890625q1.59375 -0.890625 2.328125 -2.4375q0.5625 -1.1875 0.5625 -3.515625l0 -1.28125zm8.371094 12.125l3.40625 0.515625q0.21875 1.578125 1.203125 2.296875q1.296875 0.984375 3.5625 0.984375q2.453125 0 3.78125 -0.984375q1.328125 -0.96875 1.796875 -2.734375q0.265625 -1.078125 0.25 -4.515625q-2.3125 2.71875 -5.75 2.71875q-4.265625 0 -6.609375 -3.078125q-2.34375 -3.09375 -2.34375 -7.40625q0 -2.96875 1.0625 -5.484375q1.078125 -2.515625 3.109375 -3.875q2.046875 -1.375 4.8125 -1.375q3.671875 0 6.046875 2.96875l0 -2.5l3.25 0l0 17.9375q0 4.84375 -1.0 6.859375q-0.984375 2.03125 -3.125 3.203125q-2.125 1.171875 -5.25 1.171875q-3.71875 0 -6.0 -1.671875q-2.28125 -1.671875 -2.203125 -5.03125zm2.90625 -12.46875q0 4.09375 1.609375 5.96875q1.625 1.875 4.078125 1.875q2.421875 0 4.0625 -1.859375q1.640625 -1.875 1.640625 -5.859375q0 -3.8125 -1.703125 -5.734375q-1.6875 -1.9375 -4.0625 -1.9375q-2.34375 0 -3.984375 1.90625q-1.640625 1.890625 -1.640625 5.640625zm19.996094 -13.84375l0 -4.046875l3.515625 0l0 4.046875l-3.515625 0zm0 24.59375l0 -20.75l3.515625 0l0 20.75l-3.515625 0zm8.871094 0l0 -20.75l3.15625 0l0 2.953125q2.296875 -3.421875 6.609375 -3.421875q1.875 0 3.4375 0.6875q1.578125 0.671875 2.359375 1.765625q0.78125 1.09375 1.09375 2.59375q0.203125 0.96875 0.203125 3.421875l0 12.75l-3.515625 0l0 -12.625q0 -2.140625 -0.421875 -3.203125q-0.40625 -1.0625 -1.453125 -1.703125q-1.046875 -0.640625 -2.453125 -0.640625q-2.234375 0 -3.875 1.4375q-1.625 1.421875 -1.625 5.40625l0 11.328125l-3.515625 0zm21.605469 1.71875l3.40625 0.515625q0.21875 1.578125 1.203125 2.296875q1.296875 0.984375 3.5625 0.984375q2.453125 0 3.78125 -0.984375q1.328125 -0.96875 1.796875 -2.734375q0.265625 -1.078125 0.25 -4.515625q-2.3125 2.71875 -5.75 2.71875q-4.265625 0 -6.609375 -3.078125q-2.34375 -3.09375 -2.34375 -7.40625q0 -2.96875 1.0625 -5.484375q1.078125 -2.515625 3.109375 -3.875q2.046875 -1.375 4.8125 -1.375q3.671875 0 6.046875 2.96875l0 -2.5l3.25 0l0 17.9375q0 4.84375 -1.0 6.859375q-0.984375 2.03125 -3.125 3.203125q-2.125 1.171875 -5.25 1.171875q-3.71875 0 -6.0 -1.671875q-2.28125 -1.671875 -2.203125 -5.03125zm2.90625 -12.46875q0 4.09375 1.609375 5.96875q1.625 1.875 4.078125 1.875q2.421875 0 4.0625 -1.859375q1.640625 -1.875 1.640625 -5.859375q0 -3.8125 -1.703125 -5.734375q-1.6875 -1.9375 -4.0625 -1.9375q-2.34375 0 -3.984375 1.90625q-1.640625 1.890625 -1.640625 5.640625z" fill-rule="nonzero"></path><path fill="#d1505e" d="m23.090551 23.25669l210.25984 0l0 138.5433l-210.25984 0z" fill-rule="nonzero"></path><path fill="#da737e" d="m0 0.16613805l256.44095 0l-23.09056 23.090551l-210.25984 0z" fill-rule="nonzero"></path><path fill="#a73f4b" d="m0 184.89055l23.090551 -23.09056l210.25984 0l23.09056 23.09056z" fill-rule="nonzero"></path><path fill="#e3969e" d="m0 0.16613805l23.090551 23.090551l0 138.5433l-23.090551 23.09056z" fill-rule="nonzero"></path><path fill="#7d2f38" d="m256.44095 0.16613805l0 184.72441l-23.09056 -23.09056l0 -138.5433z" fill-rule="nonzero"></path><path fill="#000000" fill-opacity="0.0" d="m0 0.16613805l256.44095 0l0 184.72441l-256.44095 0zm23.090551 23.090551l210.25984 0l0 138.5433l-210.25984 0zm-23.090551 -23.090551l23.090551 23.090551m-23.090551 161.63387l23.090551 -23.09056m233.3504 -161.63385l-23.09056 23.090551m23.09056 161.63387l-23.09056 -23.09056" fill-rule="nonzero"></path><path fill="#ffffff" d="m61.573986 98.80334l3.4218788 -0.46875q0.125 3.28125 1.21875 4.5q1.09375 1.203125 3.03125 1.203125q1.421875 0 2.453125 -0.65625q1.046875 -0.65625 1.4375 -1.78125q0.390625 -1.125 0.390625 -3.578125l0 -19.734375l3.78125 0l0 19.515625q0 3.59375 -0.875 5.578125q-0.859375 1.96875 -2.75 3.0q-1.875 1.03125 -4.421875 1.03125q-3.765625 0 -5.765629 -2.15625q-2.0 -2.171875 -1.921875 -6.453125zm35.01563 5.5625q-1.953125 1.65625 -3.765625 2.34375q-1.796875 0.6875 -3.875 0.6875q-3.40625 0 -5.25 -1.671875q-1.828125 -1.671875 -1.828125 -4.265625q0 -1.53125 0.6875 -2.78125q0.6875 -1.265625 1.8125 -2.015625q1.125 -0.765625 2.53125 -1.15625q1.03125 -0.28125 3.125 -0.53125q4.265625 -0.515625 6.265625 -1.21875q0.03125 -0.71875 0.03125 -0.90625q0 -2.15625 -1.0 -3.03125q-1.34375 -1.1875 -4.0 -1.1875q-2.484375 0 -3.671875 0.875q-1.171875 0.859375 -1.75 3.0625l-3.4375 -0.46875q0.46875 -2.203125 1.546875 -3.5625q1.078125 -1.359375 3.109375 -2.09375q2.03125 -0.734375 4.703125 -0.734375q2.65625 0 4.3125 0.625q1.671875 0.625 2.453125 1.578125q0.78125 0.953125 1.09375 2.390625q0.171875 0.90625 0.171875 3.25l0 4.6875q0 4.890625 0.21875 6.203125q0.234375 1.296875 0.890625 2.484375l-3.671875 0q-0.546875 -1.09375 -0.703125 -2.5625zm-0.296875 -7.84375q-1.90625 0.78125 -5.734375 1.328125q-2.171875 0.3125 -3.078125 0.703125q-0.890625 0.390625 -1.375 1.140625q-0.484375 0.75 -0.484375 1.671875q0 1.40625 1.0625 2.34375q1.0625 0.9375 3.109375 0.9375q2.03125 0 3.609375 -0.890625q1.59375 -0.890625 2.328125 -2.4375q0.5625 -1.1875 0.5625 -3.515625l0 -1.28125zm14.777344 10.40625l-7.890625 -20.75l3.703125 0l4.453125 12.421875q0.71875 2.015625 1.328125 4.1875q0.46875 -1.640625 1.3125 -3.953125l4.609375 -12.65625l3.609375 0l-7.84375 20.75l-3.28125 0zm27.765625 -2.5625q-1.953125 1.65625 -3.765625 2.34375q-1.796875 0.6875 -3.875 0.6875q-3.40625 0 -5.25 -1.671875q-1.828125 -1.671875 -1.828125 -4.265625q0 -1.53125 0.6875 -2.78125q0.6875 -1.265625 1.8125 -2.015625q1.125 -0.765625 2.53125 -1.15625q1.03125 -0.28125 3.125 -0.53125q4.265625 -0.515625 6.265625 -1.21875q0.03125 -0.71875 0.03125 -0.90625q0 -2.15625 -1.0 -3.03125q-1.34375 -1.1875 -4.0 -1.1875q-2.484375 0 -3.671875 0.875q-1.171875 0.859375 -1.75 3.0625l-3.4375 -0.46875q0.46875 -2.203125 1.546875 -3.5625q1.078125 -1.359375 3.109375 -2.09375q2.03125 -0.734375 4.703125 -0.734375q2.65625 0 4.3125 0.625q1.671875 0.625 2.453125 1.578125q0.78125 0.953125 1.09375 2.390625q0.171875 0.90625 0.171875 3.25l0 4.6875q0 4.890625 0.21875 6.203125q0.234375 1.296875 0.890625 2.484375l-3.671875 0q-0.546875 -1.09375 -0.703125 -2.5625zm-0.296875 -7.84375q-1.90625 0.78125 -5.734375 1.328125q-2.171875 0.3125 -3.078125 0.703125q-0.890625 0.390625 -1.375 1.140625q-0.484375 0.75 -0.484375 1.671875q0 1.40625 1.0625 2.34375q1.0625 0.9375 3.109375 0.9375q2.03125 0 3.609375 -0.890625q1.59375 -0.890625 2.328125 -2.4375q0.5625 -1.1875 0.5625 -3.515625l0 -1.28125zm9.652344 10.40625l0 -28.640625l19.312485 0l0 3.390625l-15.515625 0l0 8.859375l13.4375 0l0 3.375l-13.4375 0l0 13.015625l-3.7968597 0zm21.324203 0l11.078125 -14.921875l-9.765625 -13.71875l4.515625 0l5.1875 7.34375q1.625 2.296875 2.3125 3.515625q0.953125 -1.5625 2.265625 -3.25l5.765625 -7.609375l4.109375 0l-10.046875 13.5l10.828125 15.140625l-4.6875 0l-7.203125 -10.21875q-0.609375 -0.875 -1.25 -1.90625q-0.953125 1.5625 -1.359375 2.140625l-7.1875 9.984375l-4.5625 0z" fill-rule="nonzero"></path><path fill="#d1505e" d="m381.9266 23.25669l210.2598 0l0 138.5433l-210.2598 0z" fill-rule="nonzero"></path><path fill="#da737e" d="m358.83603 0.16613805l256.44095 0l-23.090576 23.090551l-210.2598 0z" fill-rule="nonzero"></path><path fill="#a73f4b" d="m358.83603 184.89055l23.090576 -23.09056l210.2598 0l23.090576 23.09056z" fill-rule="nonzero"></path><path fill="#e3969e" d="m358.83603 0.16613805l23.090576 23.090551l0 138.5433l-23.090576 23.09056z" fill-rule="nonzero"></path><path fill="#7d2f38" d="m615.277 0.16613805l0 184.72441l-23.090576 -23.09056l0 -138.5433z" fill-rule="nonzero"></path><path fill="#000000" fill-opacity="0.0" d="m358.83603 0.16613805l256.44095 0l0 184.72441l-256.44095 0zm23.090576 23.090551l210.2598 0l0 138.5433l-210.2598 0zm-23.090576 -23.090551l23.090576 23.090551m-23.090576 161.63387l23.090576 -23.09056m233.35037 -161.63385l-23.090576 23.090551m23.090576 161.63387l-23.090576 -23.09056" fill-rule="nonzero"></path><path fill="#ffffff" d="m424.69324 106.92834l0 -28.640625l3.796875 0l0 11.765625l14.875 0l0 -11.765625l3.796875 0l0 28.640625l-3.796875 0l0 -13.5l-14.875 0l0 13.5l-3.796875 0zm36.058594 0l0 -25.25l-9.4375 0l0 -3.390625l22.703125 0l0 3.390625l-9.484375 0l0 25.25l-3.78125 0zm17.027344 0l0 -28.640625l5.703125 0l6.78125 20.28125q0.9375 2.828125 1.359375 4.234375q0.5 -1.5625 1.53125 -4.59375l6.859375 -19.921875l5.09375 0l0 28.640625l-3.65625 0l0 -23.96875l-8.3125 23.96875l-3.421875 0l-8.28125 -24.375l0 24.375l-3.65625 0zm33.289062 0l0 -28.640625l3.78125 0l0 25.265625l14.109375 0l0 3.375l-17.890625 0zm20.964844 -7.5l3.703125 -0.3125q0.40625 2.6875 1.890625 4.046875q1.5 1.359375 3.609375 1.359375q2.546875 0 4.296875 -1.90625q1.765625 -1.921875 1.765625 -5.078125q0 -3.015625 -1.703125 -4.75q-1.6875 -1.734375 -4.421875 -1.734375q-1.6875 0 -3.0625 0.765625q-1.359375 0.765625 -2.140625 2.0l-3.3125 -0.421875l2.78125 -14.71875l14.234375 0l0 3.359375l-11.421875 0l-1.546875 7.703125q2.578125 -1.796875 5.40625 -1.796875q3.75 0 6.328125 2.59375q2.578125 2.59375 2.578125 6.6875q0 3.875 -2.265625 6.71875q-2.75 3.46875 -7.515625 3.46875q-3.90625 0 -6.375 -2.1875q-2.46875 -2.1875 -2.828125 -5.796875z" fill-rule="nonzero"></path><path fill="#d1505e" d="m726.7252 23.25669l210.25983 0l0 138.5433l-210.25983 0z" fill-rule="nonzero"></path><path fill="#da737e" d="m703.6347 0.16613805l256.44092 0l-23.090576 23.090551l-210.25983 0z" fill-rule="nonzero"></path><path fill="#a73f4b" d="m703.6347 184.89055l23.090515 -23.09056l210.25983 0l23.090576 23.09056z" fill-rule="nonzero"></path><path fill="#e3969e" d="m703.6347 0.16613805l23.090515 23.090551l0 138.5433l-23.090515 23.09056z" fill-rule="nonzero"></path><path fill="#7d2f38" d="m960.0756 0.16613805l0 184.72441l-23.090576 -23.09056l0 -138.5433z" fill-rule="nonzero"></path><path fill="#000000" fill-opacity="0.0" d="m703.6347 0.16613805l256.44092 0l0 184.72441l-256.44092 0zm23.090515 23.090551l210.25983 0l0 138.5433l-210.25983 0zm-23.090515 -23.090551l23.090515 23.090551m-23.090515 161.63387l23.090515 -23.09056m233.3504 -161.63385l-23.090576 23.090551m23.090576 161.63387l-23.090576 -23.09056" fill-rule="nonzero"></path><path fill="#ffffff" d="m789.93915 106.92834l0 -4.0l4.0 0l0 4.0l-4.0 0zm10.519531 0l0 -28.640625l3.890625 0l15.03125 22.484375l0 -22.484375l3.640625 0l0 28.640625l-3.890625 0l-15.03125 -22.5l0 22.5l-3.640625 0zm29.011719 0l0 -28.640625l20.703125 0l0 3.390625l-16.921875 0l0 8.765625l15.84375 0l0 3.359375l-15.84375 0l0 9.75l17.578125 0l0 3.375l-21.359375 0zm33.882812 0l0 -25.25l-9.4375 0l0 -3.390625l22.703125 0l0 3.390625l-9.484375 0l0 25.25l-3.78125 0z" fill-rule="nonzero"></path><path fill="#d1505e" d="m1071.5209 23.25669l210.25977 0l0 138.5433l-210.25977 0z" fill-rule="nonzero"></path><path fill="#da737e" d="m1048.4303 0.16613805l256.44092 0l-23.090576 23.090551l-210.25977 0z" fill-rule="nonzero"></path><path fill="#a73f4b" d="m1048.4303 184.89055l23.090576 -23.09056l210.25977 0l23.090576 23.09056z" fill-rule="nonzero"></path><path fill="#e3969e" d="m1048.4303 0.16613805l23.090576 23.090551l0 138.5433l-23.090576 23.09056z" fill-rule="nonzero"></path><path fill="#7d2f38" d="m1304.8712 0.16613805l0 184.72441l-23.090576 -23.09056l0 -138.5433z" fill-rule="nonzero"></path><path fill="#000000" fill-opacity="0.0" d="m1048.4303 0.16613805l256.44092 0l0 184.72441l-256.44092 0zm23.090576 23.090551l210.25977 0l0 138.5433l-210.25977 0zm-23.090576 -23.090551l23.090576 23.090551m-23.090576 161.63387l23.090576 -23.09056m233.35034 -161.63385l-23.090576 23.090551m23.090576 161.63387l-23.090576 -23.09056" fill-rule="nonzero"></path><path fill="#ffffff" d="m1145.9672 82.33459l0 -4.046875l3.515625 0l0 4.046875l-3.515625 0zm0 24.59375l0 -20.75l3.515625 0l0 20.75l-3.515625 0zm8.167969 -13.953125q0 -7.125 3.828125 -11.15625q3.828125 -4.03125 9.875 -4.03125q3.96875 0 7.15625 1.890625q3.1875 1.890625 4.84375 5.28125q1.671875 3.390625 1.671875 7.6875q0 4.359375 -1.765625 7.796875q-1.75 3.4375 -4.96875 5.203125q-3.21875 1.765625 -6.953125 1.765625q-4.046875 0 -7.234375 -1.953125q-3.171875 -1.953125 -4.8125 -5.328125q-1.640625 -3.375 -1.640625 -7.15625zm3.90625 0.0625q0 5.171875 2.78125 8.15625q2.78125 2.984375 6.984375 2.984375q4.28125 0 7.03125 -3.0q2.765625 -3.015625 2.765625 -8.546875q0 -3.5 -1.1875 -6.109375q-1.171875 -2.609375 -3.453125 -4.03125q-2.265625 -1.4375 -5.09375 -1.4375q-4.03125 0 -6.9375 2.765625q-2.890625 2.75 -2.890625 9.21875zm27.066406 4.6875l3.578125 -0.3125q0.25 2.15625 1.171875 3.53125q0.9375 1.375 2.890625 2.234375q1.953125 0.84375 4.390625 0.84375q2.171875 0 3.828125 -0.640625q1.65625 -0.65625 2.46875 -1.78125q0.8125 -1.125 0.8125 -2.453125q0 -1.34375 -0.78125 -2.34375q-0.78125 -1.015625 -2.578125 -1.6875q-1.15625 -0.453125 -5.109375 -1.390625q-3.9375 -0.953125 -5.515625 -1.796875q-2.046875 -1.078125 -3.0625 -2.671875q-1.0 -1.59375 -1.0 -3.5625q0 -2.171875 1.234375 -4.046875q1.234375 -1.890625 3.59375 -2.859375q2.359375 -0.984375 5.25 -0.984375q3.1875 0 5.609375 1.03125q2.4375 1.015625 3.75 3.015625q1.3125 1.984375 1.40625 4.515625l-3.640625 0.265625q-0.28125 -2.71875 -1.984375 -4.09375q-1.6875 -1.390625 -4.984375 -1.390625q-3.4375 0 -5.015625 1.265625q-1.5625 1.25 -1.5625 3.03125q0 1.546875 1.109375 2.53125q1.09375 1.0 5.703125 2.046875q4.625 1.046875 6.34375 1.828125q2.5 1.15625 3.6875 2.921875q1.203125 1.765625 1.203125 4.0625q0 2.296875 -1.3125 4.3125q-1.3125 2.015625 -3.765625 3.140625q-2.4375 1.125 -5.515625 1.125q-3.875 0 -6.515625 -1.125q-2.625 -1.140625 -4.125 -3.40625q-1.484375 -2.28125 -1.5625 -5.15625z" fill-rule="nonzero"></path><path fill="#d9d9d9" d="m806.65155 986.3674l53.30713 53.307068l-26.653564 0l0 51.181152l26.653564 0l-53.30713 53.307007l-53.307068 -53.307007l26.653564 0l0 -51.181152l-26.653564 0z" fill-rule="nonzero"></path><path fill="#d9d9d9" d="m128.20221 204.1764l42.346466 42.34645l-21.173233 0l0 99.77951l21.173233 0l-42.346466 42.346466l-42.34646 -42.346466l21.173233 0l0 -99.77951l-21.173233 0z" fill-rule="nonzero"></path><path fill="#d9d9d9" d="m487.04172 204.1764l42.346466 42.34645l-21.173248 0l0 99.77951l21.173248 0l-42.346466 42.346466l-42.346466 -42.346466l21.173218 0l0 -99.77951l-21.173218 0z" fill-rule="nonzero"></path><path fill="#d9d9d9" d="m831.83777 204.1764l42.346436 42.34645l-21.173218 0l0 99.77951l21.173218 0l-42.346436 42.346466l-42.346436 -42.346466l21.173218 0l0 -99.77951l-21.173218 0z" fill-rule="nonzero"></path><path fill="#d9d9d9" d="m1176.6339 204.1764l42.346436 42.34645l-21.173218 0l0 99.77951l21.173218 0l-42.346436 42.346466l-42.346558 -42.346466l21.173218 0l0 -99.77951l-21.173218 0z" fill-rule="nonzero"></path><path fill="#63c163" d="m1712.1312 157.7953l507.8739 0l0 583.4016l-507.8739 0z" fill-rule="nonzero"></path><path fill="#ffffff" d="m1853.5555 468.41608l-14.421875 -37.21875l5.328125 0l9.671875 27.03125q1.171875 3.25 1.953125 6.09375q0.859375 -3.046875 2.015625 -6.09375l10.046875 -27.03125l5.03125 0l-14.578125 37.21875l-5.046875 0zm23.480469 -31.96875l0 -5.25l4.578125 0l0 5.25l-4.578125 0zm0 31.96875l0 -26.96875l4.578125 0l0 26.96875l-4.578125 0zm29.990234 -8.6875l4.71875 0.59375q-1.109375 4.125 -4.140625 6.421875q-3.015625 2.28125 -7.71875 2.28125q-5.90625 0 -9.375 -3.640625q-3.46875 -3.640625 -3.46875 -10.21875q0 -6.8125 3.5 -10.5625q3.5 -3.765625 9.09375 -3.765625q5.40625 0 8.828125 3.6875q3.4375 3.671875 3.4375 10.359375q0 0.40625 -0.03125 1.21875l-20.109375 0q0.25 4.4375 2.515625 6.796875q2.265625 2.359375 5.640625 2.359375q2.515625 0 4.28125 -1.3125q1.78125 -1.328125 2.828125 -4.21875zm-15.015625 -7.390625l15.0625 0q-0.296875 -3.390625 -1.71875 -5.09375q-2.1875 -2.640625 -5.671875 -2.640625q-3.140625 0 -5.296875 2.109375q-2.140625 2.09375 -2.375 5.625zm30.451172 16.078125l-8.25 -26.96875l4.71875 0l4.296875 15.5625l1.59375 5.796875q0.109375 -0.4375 1.390625 -5.5625l4.296875 -15.796875l4.703125 0l4.03125 15.640625l1.34375 5.15625l1.546875 -5.203125l4.625 -15.59375l4.4375 0l-8.421875 26.96875l-4.75 0l-4.296875 -16.15625l-1.03125 -4.59375l-5.46875 20.75l-4.765625 0zm33.00586 0l0 -37.21875l7.421875 0l8.796875 26.34375q1.21875 3.6875 1.78125 5.515625q0.640625 -2.03125 1.984375 -5.96875l8.90625 -25.890625l6.625 0l0 37.21875l-4.734375 0l0 -31.15625l-10.828125 31.15625l-4.4375 0l-10.765625 -31.6875l0 31.6875l-4.75 0zm41.191406 -13.484375q0 -7.484375 4.15625 -11.09375q3.484375 -3.0 8.484375 -3.0q5.5625 0 9.078125 3.65625q3.53125 3.640625 3.53125 10.0625q0 5.203125 -1.5625 8.1875q-1.546875 2.984375 -4.53125 4.640625q-2.984375 1.640625 -6.515625 1.640625q-5.671875 0 -9.15625 -3.625q-3.484375 -3.640625 -3.484375 -10.46875zm4.6875 0q0 5.1875 2.25 7.765625q2.265625 2.5625 5.703125 2.5625q3.40625 0 5.65625 -2.578125q2.265625 -2.59375 2.265625 -7.90625q0 -5.0 -2.28125 -7.578125q-2.265625 -2.578125 -5.640625 -2.578125q-3.4375 0 -5.703125 2.578125q-2.25 2.5625 -2.25 7.734375zm43.41992 13.484375l0 -3.40625q-2.5625 4.015625 -7.546875 4.015625q-3.21875 0 -5.921875 -1.78125q-2.703125 -1.78125 -4.1875 -4.953125q-1.484375 -3.1875 -1.484375 -7.328125q0 -4.046875 1.34375 -7.328125q1.34375 -3.296875 4.03125 -5.046875q2.703125 -1.75 6.015625 -1.75q2.4375 0 4.34375 1.03125q1.90625 1.03125 3.109375 2.671875l0 -13.34375l4.531372 0l0 37.21875l-4.234497 0zm-14.453125 -13.453125q0 5.171875 2.1875 7.734375q2.1875 2.5625 5.15625 2.5625q3.0 0 5.09375 -2.4375q2.09375 -2.453125 2.09375 -7.484375q0 -5.53125 -2.140625 -8.125q-2.125 -2.59375 -5.25 -2.59375q-3.046875 0 -5.09375 2.5q-2.046875 2.484375 -2.046875 7.84375zm44.34192 4.765625l4.71875 0.59375q-1.109375 4.125 -4.140625 6.421875q-3.015625 2.28125 -7.71875 2.28125q-5.90625 0 -9.375 -3.640625q-3.46875 -3.640625 -3.46875 -10.21875q0 -6.8125 3.5 -10.5625q3.5 -3.765625 9.09375 -3.765625q5.40625 0 8.828125 3.6875q3.4375 3.671875 3.4375 10.359375q0 0.40625 -0.03125 1.21875l-20.109375 0q0.25 4.4375 2.515625 6.796875q2.265625 2.359375 5.640625 2.359375q2.515625 0 4.28125 -1.3125q1.78125 -1.328125 2.828125 -4.21875zm-15.015625 -7.390625l15.0625 0q-0.296875 -3.390625 -1.71875 -5.09375q-2.1875 -2.640625 -5.671875 -2.640625q-3.140625 0 -5.296875 2.109375q-2.140625 2.09375 -2.375 5.625zm25.373047 16.078125l0 -37.21875l4.5625 0l0 37.21875l-4.5625 0z" fill-rule="nonzero"></path><path fill="#6a9dd7" d="m1712.1326 741.20483l507.87402 0l0 226.7716l-507.87402 0z" fill-rule="nonzero"></path><path fill="#ffffff" d="m1899.1145 873.5106l0 -37.21875l7.421875 0l8.796875 26.34375q1.21875 3.6875 1.78125 5.515625q0.640625 -2.03125 1.984375 -5.96875l8.90625 -25.890625l6.625 0l0 37.21875l-4.734375 0l0 -31.15625l-10.828125 31.15625l-4.4375 0l-10.765625 -31.6875l0 31.6875l-4.75 0zm41.191406 -13.484375q0 -7.484375 4.15625 -11.09375q3.484375 -3.0 8.484375 -3.0q5.5625 0 9.078125 3.65625q3.53125 3.640625 3.53125 10.0625q0 5.203125 -1.5625 8.1875q-1.546875 2.984375 -4.53125 4.640625q-2.984375 1.640625 -6.515625 1.640625q-5.671875 0 -9.15625 -3.625q-3.484375 -3.640625 -3.484375 -10.46875zm4.6875 0q0 5.1875 2.25 7.765625q2.265625 2.5625 5.703125 2.5625q3.40625 0 5.65625 -2.578125q2.265625 -2.59375 2.265625 -7.90625q0 -5.0 -2.28125 -7.578125q-2.265625 -2.578125 -5.640625 -2.578125q-3.4375 0 -5.703125 2.578125q-2.25 2.5625 -2.25 7.734375zm43.41992 13.484375l0 -3.40625q-2.5625 4.015625 -7.546875 4.015625q-3.21875 0 -5.921875 -1.78125q-2.703125 -1.78125 -4.1875 -4.953125q-1.484375 -3.1875 -1.484375 -7.328125q0 -4.046875 1.34375 -7.328125q1.34375 -3.296875 4.03125 -5.046875q2.703125 -1.75 6.015625 -1.75q2.4375 0 4.34375 1.03125q1.90625 1.03125 3.109375 2.671875l0 -13.34375l4.53125 0l0 37.21875l-4.234375 0zm-14.453125 -13.453125q0 5.171875 2.1875 7.734375q2.1875 2.5625 5.15625 2.5625q3.0 0 5.09375 -2.4375q2.09375 -2.453125 2.09375 -7.484375q0 -5.53125 -2.140625 -8.125q-2.125 -2.59375 -5.25 -2.59375q-3.046875 0 -5.09375 2.5q-2.046875 2.484375 -2.046875 7.84375zm44.341797 4.765625l4.71875 0.59375q-1.109375 4.125 -4.140625 6.421875q-3.015625 2.28125 -7.71875 2.28125q-5.90625 0 -9.375 -3.640625q-3.46875 -3.640625 -3.46875 -10.21875q0 -6.8125 3.5 -10.5625q3.5 -3.765625 9.09375 -3.765625q5.40625 0 8.828125 3.6875q3.4375 3.671875 3.4375 10.359375q0 0.40625 -0.03125 1.21875l-20.109375 0q0.25 4.4375 2.515625 6.796875q2.265625 2.359375 5.640625 2.359375q2.515625 0 4.28125 -1.3125q1.78125 -1.328125 2.828125 -4.21875zm-15.015625 -7.390625l15.0625 0q-0.296875 -3.390625 -1.71875 -5.09375q-2.1875 -2.640625 -5.671875 -2.640625q-3.140625 0 -5.296875 2.109375q-2.140625 2.09375 -2.375 5.625zm25.373047 16.078125l0 -37.21875l4.5625 0l0 37.21875l-4.5625 0z" fill-rule="nonzero"></path><path fill="#d1505e" d="m1712.1312 0l507.8739 0l0 157.79527l-507.8739 0z" fill-rule="nonzero"></path><path fill="#ffffff" d="m1924.37 97.817635l-14.421875 -37.21875l5.328125 0l9.671875 27.03125q1.171875 3.25 1.953125 6.09375q0.859375 -3.046875 2.015625 -6.09375l10.046875 -27.03125l5.03125 0l-14.578125 37.21875l-5.046875 0zm23.480469 -31.96875l0 -5.25l4.578125 0l0 5.25l-4.578125 0zm0 31.96875l0 -26.96875l4.578125 0l0 26.96875l-4.578125 0zm29.990234 -8.6875l4.71875 0.59375q-1.109375 4.125 -4.140625 6.421875q-3.015625 2.28125 -7.71875 2.28125q-5.90625 0 -9.375 -3.640625q-3.46875 -3.640625 -3.46875 -10.21875q0 -6.8125 3.5 -10.5625q3.5 -3.765625 9.09375 -3.765625q5.40625 0 8.828125 3.6875q3.4375 3.671875 3.4375 10.359375q0 0.40625 -0.03125 1.21875l-20.109375 0q0.25 4.4375 2.515625 6.796875q2.265625 2.359375 5.640625 2.359375q2.515625 0 4.28125 -1.3125q1.78125 -1.328125 2.828125 -4.21875zm-15.015625 -7.390625l15.0625 0q-0.296875 -3.390625 -1.71875 -5.09375q-2.1875 -2.640625 -5.671875 -2.640625q-3.140625 0 -5.296875 2.109375q-2.140625 2.09375 -2.375 5.625zm30.451172 16.078125l-8.25 -26.96875l4.71875 0l4.296875 15.5625l1.59375 5.796875q0.109375 -0.4375 1.390625 -5.5625l4.296875 -15.796875l4.703125 0l4.03125 15.640625l1.34375 5.15625l1.546875 -5.203125l4.625 -15.59375l4.4375 0l-8.421875 26.96875l-4.75 0l-4.296875 -16.15625l-1.03125 -4.59375l-5.46875 20.75l-4.765625 0z" fill-rule="nonzero"></path><path fill="#d1505e" d="m1409.7528 23.090555l210.25977 0l0 138.5433l-210.25977 0z" fill-rule="nonzero"></path><path fill="#da737e" d="m1386.6622 4.7244093E-6l256.44092 0l-23.090576 23.090551l-210.25977 0z" fill-rule="nonzero"></path><path fill="#a73f4b" d="m1386.6622 184.72441l23.090576 -23.090546l210.25977 0l23.090576 23.090546z" fill-rule="nonzero"></path><path fill="#e3969e" d="m1386.6622 4.7244093E-6l23.090576 23.090551l0 138.5433l-23.090576 23.090546z" fill-rule="nonzero"></path><path fill="#7d2f38" d="m1643.1031 4.7244093E-6l0 184.72441l-23.090576 -23.090546l0 -138.5433z" fill-rule="nonzero"></path><path fill="#000000" fill-opacity="0.0" d="m1386.6622 4.7244093E-6l256.44092 0l0 184.72441l-256.44092 0zm23.090576 23.090551l210.25977 0l0 138.5433l-210.25977 0zm-23.090576 -23.090551l23.090576 23.090551m-23.090576 161.63385l23.090576 -23.090546m233.35034 -161.63387l-23.090576 23.090551m23.090576 161.63385l-23.090576 -23.090546" fill-rule="nonzero"></path><path fill="#ffffff" d="m1445.8846 106.7622l11.0 -28.640625l4.078125 0l11.71875 28.640625l-4.3125 0l-3.34375 -8.671875l-11.96875 0l-3.140625 8.671875l-4.03125 0zm8.265625 -11.765625l9.703125 0l-2.984375 -7.921875q-1.359375 -3.609375 -2.03125 -5.9375q-0.546875 2.75 -1.546875 5.46875l-3.140625 8.390625zm21.117188 11.765625l0 -20.75l3.15625 0l0 2.953125q2.296875 -3.421875 6.609375 -3.421875q1.875 0 3.4375 0.6875q1.578125 0.671875 2.359375 1.765625q0.78125 1.09375 1.09375 2.59375q0.203125 0.96875 0.203125 3.421875l0 12.75l-3.515625 0l0 -12.625q0 -2.140625 -0.421875 -3.203125q-0.40625 -1.0625 -1.453125 -1.703125q-1.046875 -0.640625 -2.453125 -0.640625q-2.234375 0 -3.875 1.4375q-1.625 1.421875 -1.625 5.40625l0 11.328125l-3.515625 0zm35.69922 0l0 -2.625q-1.96875 3.09375 -5.796875 3.09375q-2.484375 0 -4.5625 -1.359375q-2.078125 -1.375 -3.21875 -3.828125q-1.140625 -2.453125 -1.140625 -5.640625q0 -3.09375 1.03125 -5.625q1.03125 -2.53125 3.09375 -3.875q2.078125 -1.359375 4.640625 -1.359375q1.875 0 3.328125 0.796875q1.46875 0.796875 2.390625 2.0625l0 -10.28125l3.5 0l0 28.640625l-3.265625 0zm-11.109375 -10.359375q0 3.984375 1.671875 5.96875q1.6875 1.96875 3.96875 1.96875q2.3125 0 3.921875 -1.875q1.609375 -1.890625 1.609375 -5.765625q0 -4.25 -1.640625 -6.234375q-1.640625 -2.0 -4.046875 -2.0q-2.34375 0 -3.921875 1.921875q-1.5625 1.90625 -1.5625 6.015625zm19.855469 10.359375l0 -20.75l3.171875 0l0 3.15625q1.203125 -2.21875 2.234375 -2.921875q1.03125 -0.703125 2.25 -0.703125q1.78125 0 3.625 1.140625l-1.21875 3.265625q-1.28125 -0.765625 -2.578125 -0.765625q-1.15625 0 -2.078125 0.703125q-0.90625 0.6875 -1.296875 1.90625q-0.59375 1.875 -0.59375 4.109375l0 10.859375l-3.515625 0zm12.0546875 -10.375q0 -5.765625 3.203125 -8.53125q2.671875 -2.3125 6.53125 -2.3125q4.265625 0 6.984375 2.8125q2.71875 2.796875 2.71875 7.734375q0 4.015625 -1.203125 6.3125q-1.203125 2.28125 -3.5 3.5625q-2.296875 1.265625 -5.0 1.265625q-4.359375 0 -7.046875 -2.796875q-2.6875 -2.796875 -2.6875 -8.046875zm3.609375 0q0 3.984375 1.734375 5.96875q1.75 1.984375 4.390625 1.984375q2.609375 0 4.34375 -1.984375q1.75 -2.0 1.75 -6.078125q0 -3.859375 -1.75 -5.828125q-1.75 -1.984375 -4.34375 -1.984375q-2.640625 0 -4.390625 1.96875q-1.734375 1.96875 -1.734375 5.953125zm19.964844 -14.21875l0 -4.046875l3.515625 0l0 4.046875l-3.515625 0zm0 24.59375l0 -20.75l3.515625 0l0 20.75l-3.515625 0zm22.324219 0l0 -2.625q-1.96875 3.09375 -5.796875 3.09375q-2.484375 0 -4.5625 -1.359375q-2.078125 -1.375 -3.21875 -3.828125q-1.140625 -2.453125 -1.140625 -5.640625q0 -3.09375 1.03125 -5.625q1.03125 -2.53125 3.09375 -3.875q2.078125 -1.359375 4.640625 -1.359375q1.875 0 3.328125 0.796875q1.46875 0.796875 2.390625 2.0625l0 -10.28125l3.5 0l0 28.640625l-3.265625 0zm-11.109375 -10.359375q0 3.984375 1.671875 5.96875q1.6875 1.96875 3.96875 1.96875q2.3125 0 3.921875 -1.875q1.609375 -1.890625 1.609375 -5.765625q0 -4.25 -1.640625 -6.234375q-1.640625 -2.0 -4.046875 -2.0q-2.34375 0 -3.921875 1.921875q-1.5625 1.90625 -1.5625 6.015625z" fill-rule="nonzero"></path><path fill="#d9d9d9" d="m1514.8661 203.93178l42.346558 42.346466l-21.173218 0l0 99.779495l21.173218 0l-42.346558 42.346466l-42.346436 -42.346466l21.173218 0l0 -99.779495l-21.173218 0z" fill-rule="nonzero"></path></g></svg>

